<?xml version="1.0" encoding="UTF-8" standalone="no"?>
<!-- Created with Inkscape (http://www.inkscape.org/) -->

<svg
   width="64mm"
   height="64mm"
   viewBox="0 0 64 64"
   version="1.1"
   id="svg1"
   xml:space="preserve"
   inkscape:version="1.3.1 (6036e22fae, 2023-11-19, custom)"
   sodipodi:docname="logo.svg"
   xmlns:inkscape="http://www.inkscape.org/namespaces/inkscape"
   xmlns:sodipodi="http://sodipodi.sourceforge.net/DTD/sodipodi-0.dtd"
   xmlns="http://www.w3.org/2000/svg"
   xmlns:svg="http://www.w3.org/2000/svg"><sodipodi:namedview
     id="namedview1"
     pagecolor="#ffffff"
     bordercolor="#000000"
     borderopacity="0.25"
     inkscape:showpageshadow="2"
     inkscape:pageopacity="0.0"
     inkscape:pagecheckerboard="0"
     inkscape:deskcolor="#d1d1d1"
     inkscape:document-units="mm"
     inkscape:zoom="2.3886877"
     inkscape:cx="-17.373557"
     inkscape:cy="257.04491"
     inkscape:window-width="3840"
     inkscape:window-height="2096"
     inkscape:window-x="0"
     inkscape:window-y="27"
     inkscape:window-maximized="1"
     inkscape:current-layer="layer1" /><defs
     id="defs1" /><g
     inkscape:label="Layer 1"
     inkscape:groupmode="layer"
     id="layer1"><path
       style="opacity:1;fill:none;fill-opacity:1;stroke:#000000;stroke-width:1.47237;stroke-linecap:round;stroke-linejoin:round;stroke-dasharray:none;stroke-opacity:1"
       d="M 26.7831,55.920058 26.749048,43.427177"
       id="path19"
       sodipodi:nodetypes="cc" /><path
       id="path1"
       style="fill:none;stroke:#000000;stroke-width:1.47237;stroke-linecap:round;stroke-linejoin:round"
       d="M 20.90292,12.69012 26.766091,9.3476255 41.140023,17.646422 V 34.244008 L 26.766091,42.542806 12.392157,34.244008 V 17.646422 l 5.758217,-3.425499"
       sodipodi:nodetypes="cccccccc" /><circle
       style="fill:#c92b1e;fill-opacity:1;stroke:#000000;stroke-width:1.47237;stroke-linecap:round;stroke-linejoin:round;stroke-dasharray:none"
       id="path2"
       cx="26.7661"
       cy="9.1729727"
       r="4.5263143" /><path
       style="opacity:1;fill:none;fill-opacity:1;stroke:#000000;stroke-width:1.47237;stroke-linecap:round;stroke-linejoin:round;stroke-dasharray:none;stroke-opacity:1"
       d="M 41.140023,17.646422 51.942545,11.371191"
       id="path12"
       sodipodi:nodetypes="cc" /><circle
       style="fill:#c92b1e;fill-opacity:1;stroke:#000000;stroke-width:1.47237;stroke-linecap:round;stroke-linejoin:round;stroke-dasharray:none"
       id="circle2"
       cx="41.314671"
       cy="17.422436"
       r="4.5263143" /><circle
       style="fill:#c92b1e;fill-opacity:1;stroke:#000000;stroke-width:1.47237;stroke-linecap:round;stroke-linejoin:round;stroke-dasharray:none"
       id="circle3"
       cx="40.867355"
       cy="32.90773"
       r="4.5263143" /><circle
       style="fill:#c92b1e;fill-opacity:1;stroke:#000000;stroke-width:1.47237;stroke-linecap:round;stroke-linejoin:round;stroke-dasharray:none"
       id="circle4"
       cx="26.7661"
       cy="42.717468"
       r="4.5263143" /><circle
       style="fill:#c92b1e;fill-opacity:1;stroke:#000000;stroke-width:1.47237;stroke-linecap:round;stroke-linejoin:round;stroke-dasharray:none"
       id="circle5"
       cx="12.21748"
       cy="32.90773"
       r="4.5263143" /><circle
       style="fill:#c92b1e;fill-opacity:1;stroke:#000000;stroke-width:1.47237;stroke-linecap:round;stroke-linejoin:round;stroke-dasharray:none"
       id="circle6"
       cx="12.21748"
       cy="17.422436"
       r="4.5263143" /><rect
       style="opacity:1;fill:#ffffff;fill-opacity:1;stroke:none;stroke-width:0.208523;stroke-linecap:round;stroke-linejoin:round;stroke-dasharray:none;stroke-opacity:1"
       id="rect11"
       width="8.6259012"
       height="1.3623607"
       x="22.453144"
       y="8.491786" /><rect
       style="opacity:1;fill:#ffffff;fill-opacity:1;stroke:none;stroke-width:0.209256;stroke-linecap:round;stroke-linejoin:round;stroke-dasharray:none;stroke-opacity:1"
       id="rect12"
       width="8.6259012"
       height="1.3719332"
       x="4.8600178"
       y="-26.049637"
       transform="rotate(90)" /><circle
       style="fill:none;fill-opacity:1;stroke:#000000;stroke-width:1.47237;stroke-linecap:round;stroke-linejoin:round;stroke-dasharray:none"
       id="circle12"
       cx="26.7661"
       cy="9.1729727"
       r="4.5263143" /><circle
       style="fill:#c92b1e;fill-opacity:1;stroke:#000000;stroke-width:1.47237;stroke-linecap:round;stroke-linejoin:round;stroke-dasharray:none"
       id="circle13"
       cx="52.678715"
       cy="10.635005"
       r="4.5263143" /><rect
       style="opacity:1;fill:#ffffff;fill-opacity:1;stroke:none;stroke-width:0.218454;stroke-linecap:round;stroke-linejoin:round;stroke-dasharray:none;stroke-opacity:1"
       id="rect13"
       width="9.4672918"
       height="1.3623607"
       x="47.737759"
       y="9.9538298" /><rect
       style="opacity:1;fill:#ffffff;fill-opacity:1;stroke:none;stroke-width:0.209256;stroke-linecap:round;stroke-linejoin:round;stroke-dasharray:none;stroke-opacity:1"
       id="rect14"
       width="8.6259012"
       height="1.3719332"
       x="6.3220539"
       y="-51.95755"
       transform="rotate(90)" /><rect
       style="opacity:1;fill:#002768;fill-opacity:1;stroke:none;stroke-width:0.165191;stroke-linecap:round;stroke-linejoin:round;stroke-dasharray:none;stroke-opacity:1"
       id="rect15"
       width="9.4672918"
       height="0.77899289"
       x="47.737759"
       y="10.245506" /><rect
       style="opacity:1;fill:#002768;fill-opacity:1;stroke:none;stroke-width:0.155205;stroke-linecap:round;stroke-linejoin:round;stroke-dasharray:none;stroke-opacity:1"
       id="rect16"
       width="8.6259012"
       height="0.75476116"
       x="6.3220539"
       y="-51.64896"
       transform="rotate(90)" /><circle
       style="fill:none;fill-opacity:1;stroke:#000000;stroke-width:1.47237;stroke-linecap:round;stroke-linejoin:round;stroke-dasharray:none"
       id="circle14"
       cx="52.678715"
       cy="10.635005"
       r="4.5263143" /><circle
       style="fill:#006aa7;fill-opacity:1;stroke:none;stroke-width:1.47237;stroke-linecap:round;stroke-linejoin:round;stroke-dasharray:none"
       id="circle18"
       cx="26.783098"
       cy="55.238884"
       r="4.5263143" /><rect
       style="opacity:1;fill:#fecc00;fill-opacity:1;stroke:none;stroke-width:0.208523;stroke-linecap:round;stroke-linejoin:round;stroke-dasharray:none;stroke-opacity:1"
       id="rect18"
       width="8.6259012"
       height="1.3623607"
       x="22.470161"
       y="54.557705" /><rect
       style="opacity:1;fill:#fecc00;fill-opacity:1;stroke:none;stroke-width:0.209256;stroke-linecap:round;stroke-linejoin:round;stroke-dasharray:none;stroke-opacity:1"
       id="rect19"
       width="8.6259012"
       height="1.3719332"
       x="50.92593"
       y="-26.066631"
       transform="rotate(90)" /><path
       style="fill:none;fill-opacity:1;stroke:#000000;stroke-width:1.47237;stroke-linecap:round;stroke-linejoin:round;stroke-dasharray:none"
       id="circle19"
       sodipodi:type="arc"
       sodipodi:cx="12.569865"
       sodipodi:cy="60.088879"
       sodipodi:rx="4.5263143"
       sodipodi:ry="4.5263143"
       sodipodi:start="0"
       sodipodi:end="5.4243344"
       sodipodi:arc-type="arc"
       d="m 17.096179,60.088879 a 4.5263143,4.5263143 0 0 1 -3.561907,4.422379 4.5263143,4.5263143 0 0 1 -5.0797548,-2.537855 4.5263143,4.5263143 0 0 1 1.3972532,-5.503845 4.5263143,4.5263143 0 0 1 5.6751716,0.192483"
       sodipodi:open="true"
       transform="rotate(-14.051403)" /><path
       id="path22"
       style="opacity:0.226716;fill:#ffffff;fill-opacity:1;stroke:none;stroke-width:1.92419;stroke-linecap:round;stroke-linejoin:round;stroke-dasharray:none;stroke-opacity:1"
       d="m 26.766063,3.9104545 a 5.2625318,5.2625318 0 0 0 -5.26246,5.262455 5.2625318,5.2625318 0 0 0 0.303441,1.7247315 9.0884742,9.0884742 0 0 0 7.73345,-6.1948217 5.2625318,5.2625318 0 0 0 -2.774431,-0.7923648 z" /><circle
       style="fill:none;fill-opacity:1;stroke:#000000;stroke-width:1.47237;stroke-linecap:round;stroke-linejoin:round;stroke-dasharray:none"
       id="circle23"
       cx="41.314671"
       cy="17.347361"
       r="4.5263143" /><path
       id="path23"
       style="opacity:0.226716;fill:#ffffff;fill-opacity:1;stroke:none;stroke-width:1.92419;stroke-linecap:round;stroke-linejoin:round;stroke-dasharray:none;stroke-opacity:1"
       d="m 41.314673,12.084849 a 5.2625318,5.2625318 0 0 0 -5.262458,5.262459 5.2625318,5.2625318 0 0 0 0.303425,1.72473 9.0884742,9.0884742 0 0 0 7.73345,-6.194822 5.2625318,5.2625318 0 0 0 -2.774417,-0.792367 z" /><circle
       style="fill:none;fill-opacity:1;stroke:#000000;stroke-width:1.47237;stroke-linecap:round;stroke-linejoin:round;stroke-dasharray:none"
       id="circle24"
       cx="52.678715"
       cy="10.635005"
       r="4.5263143" /><path
       id="path24"
       style="opacity:0.226716;fill:#ffffff;fill-opacity:1;stroke:none;stroke-width:1.92419;stroke-linecap:round;stroke-linejoin:round;stroke-dasharray:none;stroke-opacity:1"
       d="m 52.678702,5.3724909 a 5.2625318,5.2625318 0 0 0 -5.262456,5.2624571 5.2625318,5.2625318 0 0 0 0.303437,1.724732 9.0884742,9.0884742 0 0 0 7.733439,-6.1948252 5.2625318,5.2625318 0 0 0 -2.77442,-0.7923639 z" /><circle
       style="fill:none;fill-opacity:1;stroke:#000000;stroke-width:1.47237;stroke-linecap:round;stroke-linejoin:round;stroke-dasharray:none"
       id="circle25"
       cx="40.867355"
       cy="32.90773"
       r="4.5263143" /><path
       id="path25"
       style="opacity:0.226716;fill:#ffffff;fill-opacity:1;stroke:none;stroke-width:1.92419;stroke-linecap:round;stroke-linejoin:round;stroke-dasharray:none;stroke-opacity:1"
       d="m 40.867326,27.645207 a 5.2625318,5.2625318 0 0 0 -5.26246,5.262461 5.2625318,5.2625318 0 0 0 0.303439,1.724728 9.0884742,9.0884742 0 0 0 7.73345,-6.194818 5.2625318,5.2625318 0 0 0 -2.774429,-0.792371 z" /><circle
       style="fill:none;fill-opacity:1;stroke:#000000;stroke-width:1.47237;stroke-linecap:round;stroke-linejoin:round;stroke-dasharray:none"
       id="circle26"
       cx="26.7661"
       cy="42.717468"
       r="4.5263143" /><path
       id="path26"
       style="opacity:0.226716;fill:#ffffff;fill-opacity:1;stroke:none;stroke-width:1.92419;stroke-linecap:round;stroke-linejoin:round;stroke-dasharray:none;stroke-opacity:1"
       d="m 26.766063,37.454955 a 5.2625318,5.2625318 0 0 0 -5.26246,5.262457 5.2625318,5.2625318 0 0 0 0.303441,1.724732 9.0884742,9.0884742 0 0 0 7.73345,-6.19483 5.2625318,5.2625318 0 0 0 -2.774431,-0.792359 z" /><circle
       style="fill:none;fill-opacity:1;stroke:#000000;stroke-width:1.47237;stroke-linecap:round;stroke-linejoin:round;stroke-dasharray:none"
       id="circle27"
       cx="12.21748"
       cy="32.90773"
       r="4.5263143" /><path
       id="path27"
       style="opacity:0.226716;fill:#ffffff;fill-opacity:1;stroke:none;stroke-width:1.92419;stroke-linecap:round;stroke-linejoin:round;stroke-dasharray:none;stroke-opacity:1"
       d="m 12.217466,27.645207 a 5.2625318,5.2625318 0 0 0 -5.2624586,5.262461 5.2625318,5.2625318 0 0 0 0.3034392,1.724728 9.0884742,9.0884742 0 0 0 7.7334364,-6.19483 5.2625318,5.2625318 0 0 0 -2.774417,-0.792359 z" /><circle
       style="fill:none;fill-opacity:1;stroke:#000000;stroke-width:1.47237;stroke-linecap:round;stroke-linejoin:round;stroke-dasharray:none"
       id="circle28"
       cx="12.21748"
       cy="17.409618"
       r="4.5263143" /><path
       id="path28"
       style="opacity:0.226716;fill:#ffffff;fill-opacity:1;stroke:none;stroke-width:1.92419;stroke-linecap:round;stroke-linejoin:round;stroke-dasharray:none;stroke-opacity:1"
       d="M 12.217466,12.147092 A 5.2625318,5.2625318 0 0 0 6.9550074,17.40955 5.2625318,5.2625318 0 0 0 7.2584466,19.134279 9.0884742,9.0884742 0 0 0 14.991883,12.939456 5.2625318,5.2625318 0 0 0 12.217466,12.147092 Z" /><path
       id="path29"
       style="opacity:0.226716;fill:#ffffff;fill-opacity:1;stroke:none;stroke-width:1.92419;stroke-linecap:round;stroke-linejoin:round;stroke-dasharray:none;stroke-opacity:1"
       d="m 26.783071,49.976347 a 5.2625318,5.2625318 0 0 0 -5.262457,5.262461 5.2625318,5.2625318 0 0 0 0.303439,1.724729 9.0884742,9.0884742 0 0 0 7.73345,-6.194815 5.2625318,5.2625318 0 0 0 -2.774432,-0.792375 z" /></g></svg>
